#!OML:ASF I:\Actors\actors\Patient Classification 2\Patient 1\Session 1\actor1.ASF
:FULLY-SPECIFIED
:DEGREES
358
root -2.59747 18.2297 5.31063 3.92637 50.5093 -12.1284
lowerback 14.7691 8.33261 0.610635
upperback 2.43514 10.9796 -2.56751
thorax -4.93797 5.39527 -5.04393
lowerneck -1.11885 -20.703 -17.0847
upperneck -1.70126 -28.2577 20.7204
head 5.05671 -13.9283 6.24186
rclavicle -6.87795e-014 -2.90226e-014
rhumerus 6.67706 -22.5005 -68.091
rradius 34.2138
rwrist -28.1397
rhand -8.41721 -57.7537
rfingers 7.12502
rthumb 17.5074 -86.9854
lclavicle -6.87795e-014 -2.90226e-014
lhumerus -62.3956 -1.86084 84.0457
lradius 66.9686
lwrist 15.3043
lhand -12.8288 -26.1543
lfingers 7.12502
lthumb 13.2582 3.40401
rfemur -6.86377 -45.4957 39.733
rtibia -3.81667e-014
rfoot -18.1334 -6.14983
rtoes 17.8638
lfemur -13.1871 -27.9766 7.53865
ltibia -25.4203
lfoot 20.5613 4.51594
ltoes -9.52477
359
root -2.54862 18.2243 5.30076 3.83369 50.065 -11.9749
lowerback 14.573 8.25987 0.924579
upperback 2.39564 10.9345 -2.5959
thorax -4.81399 5.37386 -5.20022
lowerneck -1.05658 -20.6719 -17.0124
upperneck -1.77746 -28.2098 20.6879
head 5.00011 -13.9109 6.24677
rclavicle -1.64991e-014 1.47101e-014
rhumerus 5.89555 -22.0533 -69.0757
rradius 34.2743
rwrist -28.147
rhand -8.56232 -57.4369
rfingers 7.12502
rthumb 17.3677 -86.681
lclavicle -1.64991e-014 1.47101e-014
lhumerus -62.2808 -1.82532 84.0424
lradius 66.4955
lwrist 15.2521
lhand -12.3636 -26.049
lfingers 7.12502
lthumb 13.7066 3.4796
rfemur -6.25813 -45.1569 39.0328
rtibia -2.38542e-014
rfoot -18.0646 -6.10799
rtoes 18.2512
lfemur -12.7174 -28.325 7.34258
ltibia -25.3799
lfoot 20.0151 4.51336
ltoes -10.5396
360
root -2.5048 18.2225 5.32265 3.6183 49.1988 -11.7526
lowerback 14.3396 8.385 0.6481
upperback 2.42429 11.0642 -2.51019
thorax -4.71623 5.44512 -4.94603
lowerneck -1.0634 -20.6428 -17.0059
upperneck -1.77216 -28.1697 20.6904
head 4.99557 -13.8896 6.25415
rclavicle 4.57205e-014 -2.62396e-014
rhumerus 5.09242 -21.5214 -70.0396
rradius 34.3292
rwrist -28.077
rhand -8.84459 -57.5446
rfingers 7.12502
rthumb 17.096 -86.8124
lclavicle 4.57205e-014 -2.62396e-014
lhumerus -62.1829 -1.72963 84.1169
lradius 66.0062
lwrist 14.7953
lhand -12.4423 -25.9478
lfingers 7.12502
lthumb 13.6308 3.58592
rfemur -5.13156 -44.4691 37.9994
rtibia 2.70347e-014
rfoot -18.1173 -6.03402
rtoes 18.3701
lfemur -11.7021 -28.4964 6.90891
ltibia -25.3134
lfoot 19.1142 4.39981
ltoes -11.7826
361
root -2.46099 18.2156 5.33017 3.39209 48.5157 -11.6208
lowerback 14.185 8.36652 0.623846
upperback 2.41442 11.0407 -2.46294
thorax -4.65942 5.43595 -4.85599
lowerneck -1.22176 -20.5872 -16.8272
upperneck -1.76816 -28.0705 20.6429
head 4.97243 -13.8318 6.22802
rclavicle -2.42517e-014 -2.42517e-014
rhumerus 4.17073 -20.6667 -70.9828
rradius 34.4875
rwrist -27.9982
rhand -9.53371 -57.8134
rfingers 7.12502
rthumb 16.4326 -87.1374
lclavicle -2.42517e-014 -2.42517e-014
lhumerus -62.0363 -1.57361 84.0873
lradius 65.5046
lwrist 14.5351
lhand -12.3212 -25.7523
lfingers 7.12502
lthumb 13.7475 3.77356
rfemur -4.23126 -43.921 37.1939
rtibia 1.11319e-014
rfoot -18.2051 -6.03504
rtoes 18.1827
lfemur -10.8651 -28.4373 6.42902
ltibia -25.2056
lfoot 18.3891 3.98254
ltoes -12.3009
362
root -2.41891 18.2084 5.33524 3.11788 47.745 -11.6242
lowerback 14.0191 8.34154 0.596404
upperback 2.37088 11.009 -2.37951
thorax -4.6407 5.42068 -4.72797
lowerneck -1.54447 -20.5068 -16.4194
upperneck -1.75776 -27.9071 20.4471
head 4.91026 -13.7357 6.13648
rclavicle 3.53837e-014 2.46493e-014
rhumerus 3.27464 -19.6239 -71.9403
rradius 34.5926
rwrist -27.4738
rhand -9.62413 -57.644
rfingers 7.12502
rthumb 16.3456 -86.9752
lclavicle 3.53837e-014 2.46493e-014
lhumerus -61.8335 -1.31427 83.9608
lradius 64.9966
lwrist 14.4416
lhand -11.7572 -25.5114
lfingers 7.12502
lthumb 14.2909 3.97684
rfemur -3.4184 -43.2611 36.5719
rtibia -1.43125e-014
rfoot -18.3145 -6.03686
rtoes 17.7754
lfemur -10.0336 -28.2265 6.01678
ltibia -25.0801
lfoot 17.5917 3.62031
ltoes -13.2872
363
root -2.37063 18.2039 5.34073 2.98812 46.9063 -11.5227
lowerback 13.7147 8.33627 0.510937
upperback 2.32156 10.9969 -2.28425
thorax -4.56483 5.41782 -4.53829
lowerneck -1.78474 -20.4278 -16.2914
upperneck -1.74107 -27.7725 20.4563
head 4.91519 -13.6538 6.12717
rclavicle 3.12092e-014 9.54166e-015
rhumerus 2.33758 -18.4234 -72.7657
rradius 34.624
rwrist -26.7715
rhand -8.83699 -57.3444
rfingers 7.12502
rthumb 17.1033 -86.6116
lclavicle 3.12092e-014 9.54166e-015
lhumerus -61.6285 -1.02378 83.8891
lradius 64.5034
lwrist 14.3825
lhand -11.0181 -25.3078
lfingers 7.12502
lthumb 15.003 4.1287
rfemur -2.69491 -42.5135 35.9155
rtibia 4.77083e-015
rfoot -18.3834 -6.03768
rtoes 17.5749
lfemur -9.23046 -28.0244 5.54005
ltibia -24.9647
lfoot 16.8254 3.65383
ltoes -13.8854
364
root -2.31467 18.2035 5.34827 2.86634 46.0276 -11.3497
lowerback 13.4087 8.34083 0.461694
upperback 2.26362 11.0011 -2.24415
thorax -4.47778 5.42303 -4.42721
lowerneck -1.93819 -20.3537 -16.2969
upperneck -1.70149 -27.6751 20.666
head 4.97186 -13.5908 6.18397
rclavicle 1.00187e-013 1.11319e-014
rhumerus 1.2313 -17.3498 -73.6629
rradius 34.7403
rwrist -26.2004
rhand -8.19279 -57.0903
rfingers 7.12502
rthumb 17.7233 -86.3026
lclavicle 1.00187e-013 1.11319e-014
lhumerus -61.4741 -0.829191 83.7429
lradius 64.0716
lwrist 14.4896
lhand -10.0996 -25.183
lfingers 7.12502
lthumb 15.8878 4.18527
rfemur -1.88269 -41.732 35.1271
rtibia -2.06736e-014
rfoot -18.4386 -6.03398
rtoes 17.758
lfemur -8.28994 -27.8407 4.9367
ltibia -24.9375
lfoot 16.2308 3.84256
ltoes -14.2729
365
root -2.25416 18.2046 5.35798 2.68132 45.1014 -11.1399
lowerback 13.1856 8.33514 0.43939
upperback 2.19412 10.9924 -2.25577
thorax -4.43304 5.42017 -4.39626
lowerneck -2.11222 -20.2405 -16.0815
upperneck -1.63875 -27.5176 20.7407
head 4.97635 -13.4999 6.19332
rclavicle 7.23576e-014 -3.65764e-014
rhumerus -0.0076261 -16.6171 -74.7688
rradius 34.9587
rwrist -25.5932
rhand -8.2638 -56.8729
rfingers 7.12502
rthumb 17.655 -86.0913
lclavicle 7.23576e-014 -3.65764e-014
lhumerus -61.3617 -0.709437 83.5258
lradius 63.6314
lwrist 14.4435
lhand -9.41051 -25.0865
lfingers 7.12502
lthumb 16.5513 4.2276
rfemur -0.946671 -40.9177 34.2306
rtibia -3.81667e-014
rfoot -18.4866 -6.06285
rtoes 17.6791
lfemur -7.24917 -27.8342 4.28775
ltibia -24.8915
lfoot 15.5721 4.13645
ltoes -14.9461
366
root -2.19437 18.1922 5.36734 2.58231 44.1599 -10.8123
lowerback 13.0057 8.31735 0.353876
upperback 2.10071 10.9569 -2.28789
thorax -4.44618 5.40276 -4.35945
lowerneck -2.23384 -20.1142 -15.8703
upperneck -1.56897 -27.3415 20.7215
head 4.95644 -13.4043 6.18704
rclavicle 2.82274e-014 -3.81667e-014
rhumerus -1.38933 -15.881 -75.8173
rradius 35.2497
rwrist -24.8238
rhand -8.53876 -56.9549
rfingers 7.12502
rthumb 17.3904 -86.197
lclavicle 2.82274e-014 -3.81667e-014
lhumerus -61.2444 -0.675894 83.4154
lradius 63.0587
lwrist 13.9407
lhand -9.34937 -25.0023
lfingers 7.12502
lthumb 16.6101 4.30687
rfemur -0.0525788 -40.0796 33.2876
rtibia 1.90833e-014
rfoot -18.5568 -6.10961
rtoes 17.4925
lfemur -6.21491 -27.8097 3.53678
ltibia -24.8364
lfoot 14.9196 4.38782
ltoes -15.524
367
root -2.13996 18.1893 5.37819 2.60866 43.2543 -10.4357
lowerback 12.7741 8.27853 0.205508
upperback 1.97422 10.8851 -2.3245
thorax -4.47907 5.3674 -4.28433
lowerneck -2.32873 -19.9972 -15.753
upperneck -1.50821 -27.1833 20.7529
head 4.95366 -13.3178 6.20268
rclavicle -7.27552e-014 -9.54166e-015
rhumerus -2.79387 -14.9378 -76.7138
rradius 35.4454
rwrist -23.8201
rhand -8.54514 -57.1778
rfingers 7.12502
rthumb 17.3842 -86.4204
lclavicle -7.27552e-014 -9.54166e-015
lhumerus -61.1276 -0.724786 83.337
lradius 62.5309
lwrist 13.5835
lhand -9.21371 -24.9104
lfingers 7.12502
lthumb 16.7407 4.38787
rfemur 0.658659 -39.2486 32.4491
rtibia 2.70347e-014
rfoot -18.6558 -6.12968
rtoes 17.545
lfemur -5.30904 -27.5274 2.72695
ltibia -24.7468
lfoot 14.3405 4.36746
ltoes -16.2168
368
root -2.08318 18.1899 5.39327 2.70933 42.3261 -10.023
lowerback 12.3683 8.228 -0.00256245
upperback 1.87273 10.7948 -2.34919
thorax -4.40481 5.32745 -4.13198
lowerneck -2.49515 -19.8492 -15.6875
upperneck -1.4113 -26.9798 20.8038
head 4.97583 -13.2029 6.22854
rclavicle 4.49253e-014 1.59028e-015
rhumerus -4.0746 -13.9375 -77.5193
rradius 35.4443
rwrist -22.8489
rhand -8.4819 -57.2531
rfingers 7.12502
rthumb 17.4451 -86.4903
lclavicle 4.49253e-014 1.59028e-015
lhumerus -60.9973 -0.760509 83.2439
lradius 62.1485
lwrist 13.6041
lhand -8.83465 -24.7479
lfingers 7.12502
lthumb 17.1056 4.51909
rfemur 1.28644 -38.378 31.6359
rtibia -7.95139e-015
rfoot -18.7553 -6.17236
rtoes 17.4249
lfemur -4.44669 -27.2053 1.91658
ltibia -24.6519
lfoot 13.7201 4.45027
ltoes -16.6568
369
root -2.02569 18.195 5.41163 2.70641 41.3465 -9.72874
lowerback 11.889 8.16229 -0.219408
upperback 1.84835 10.692 -2.27189
thorax -4.2304 5.28462 -3.85002
lowerneck -2.86814 -19.6854 -15.7237
upperneck -1.28292 -26.7304 20.8427
head 5.04391 -13.0506 6.24827
rclavicle -4.29375e-014 -1.98785e-014
rhumerus -5.20112 -13.0183 -78.2748
rradius 35.4528
rwrist -22.2958
rhand -8.66435 -57.126
rfingers 7.12502
rthumb 17.2695 -86.3787
lclavicle -4.29375e-014 -1.98785e-014
lhumerus -60.7501 -0.607576 83.2113
lradius 61.7377
lwrist 13.5465
lhand -8.58291 -24.5852
lfingers 7.12502
lthumb 17.3479 4.66059
rfemur 1.92902 -37.4523 30.9149
rtibia 1.74931e-014
rfoot -18.8752 -6.24592
rtoes 17.133
lfemur -3.58601 -26.8531 1.20067
ltibia -24.483
lfoot 13.1379 4.66341
ltoes -16.9284
370
root -1.96977 18.2021 5.42679 2.73492 40.3943 -9.44301
lowerback 11.4518 8.05872 -0.429529
upperback 1.82152 10.5413 -2.17824
thorax -4.08432 5.2166 -3.55703
lowerneck -3.30755 -19.5314 -15.8393
upperneck -1.21183 -26.4832 20.9765
head 5.13132 -12.8946 6.29795
rclavicle -4.29375e-014 -2.70347e-014
rhumerus -6.35051 -12.52 -79.0745
rradius 35.6413
rwrist -22.0031
rhand -8.82146 -57.0329
rfingers 7.12502
rthumb 17.1183 -86.2987
lclavicle -4.29375e-014 -2.70347e-014
lhumerus -60.4324 -0.360041 83.1826
lradius 61.3011
lwrist 13.3802
lhand -8.46121 -24.4052
lfingers 7.12502
lthumb 17.465 4.8302
rfemur 2.48892 -36.539 30.2417
rtibia -1.90833e-014
rfoot -18.9874 -6.26641
rtoes 17.2793
lfemur -2.78599 -26.2799 0.459147
ltibia -24.3427
lfoot 12.7966 4.7156
ltoes -17.3329
371
root -1.91217 18.2092 5.43875 2.92712 39.4545 -8.92195
lowerback 11.1124 7.97159 -0.703421
upperback 1.71105 10.3975 -2.20637
thorax -4.06512 5.149 -3.38095
lowerneck -3.57797 -19.3965 -15.8643
upperneck -1.13187 -26.2848 21.0806
head 5.18591 -12.7738 6.33846
rclavicle 1.50679e-013 -3.4191e-014
rhumerus -7.84886 -12.3977 -79.823
rradius 36.0649
rwrist -21.8082
rhand -8.80716 -57.2628
rfingers 7.12502
rthumb 17.1321 -86.5275
lclavicle 1.50679e-013 -3.4191e-014
lhumerus -60.2037 -0.334052 83.1173
lradius 60.9518
lwrist 13.1669
lhand -8.47463 -24.1385
lfingers 7.12502
lthumb 17.4521 5.09803
rfemur 3.00583 -35.6338 29.3685
rtibia 9.54166e-015
rfoot -19.0648 -6.27511
rtoes 17.5131
lfemur -2.00971 -25.6984 -0.494105
ltibia -24.2413
lfoot 12.5187 4.77137
ltoes -17.5847
